<svg xmlns="http://www.w3.org/2000/svg" width="16" height="16" fill="none">
  <path stroke="#161616" stroke-linecap="round" stroke-linejoin="round" stroke-opacity=".5" stroke-width="1.3" d="m1.667 14.333 3.699-1.422c.237-.091.355-.137.466-.196.098-.053.192-.114.28-.183.1-.077.189-.166.368-.345L14 4.667A1.886 1.886 0 0 0 11.333 2l-7.52 7.52c-.179.18-.269.269-.346.368-.068.088-.129.182-.182.28-.06.11-.105.23-.196.466l-1.422 3.7Zm0 0 1.372-3.567c.098-.255.147-.383.231-.441a.333.333 0 0 1 .253-.054c.1.02.197.116.39.31l1.507 1.505c.193.194.29.29.309.391a.333.333 0 0 1-.054.253c-.058.084-.186.133-.441.231l-3.567 1.372Z"/>
</svg>
